<?xml version="1.0" encoding="utf-8"?>
<!-- Generator: Adobe Illustrator 15.1.0, SVG Export Plug-In . SVG Version: 6.00 Build 0)  -->
<!DOCTYPE svg PUBLIC "-//W3C//DTD SVG 1.1//EN" "http://www.w3.org/Graphics/SVG/1.1/DTD/svg11.dtd">
<svg version="1.1" id="Layer_1" xmlns="http://www.w3.org/2000/svg" xmlns:xlink="http://www.w3.org/1999/xlink" x="0px" y="0px"
	 width="96px" height="96px" viewBox="0 0 96 96" enable-background="new 0 0 96 96" xml:space="preserve">
<g>
	<g>
		
			<linearGradient id="SVGID_1_" gradientUnits="userSpaceOnUse" x1="293.25" y1="-327.2881" x2="374.75" y2="-327.2881" gradientTransform="matrix(1 0 0 -1 -286 -279)">
			<stop  offset="0" style="stop-color:#224096"/>
			<stop  offset="0.7685" style="stop-color:#4A6EB4"/>
			<stop  offset="1" style="stop-color:#4A6EB4"/>
		</linearGradient>
		<path opacity="0.3" fill="url(#SVGID_1_)" enable-background="new    " d="M48,7.538c-30.191,0-40.75,10.561-40.75,40.75
			c0,30.187,10.559,40.75,40.75,40.75c30.191,0,40.75-10.563,40.75-40.75C88.75,18.099,78.191,7.538,48,7.538z M48,88.273
			c-29.624,0-39.984-10.363-39.984-39.986C8.016,18.663,18.376,8.302,48,8.302c29.626,0,39.986,10.361,39.986,39.985
			C87.986,77.91,77.626,88.273,48,88.273z"/>
		
			<linearGradient id="SVGID_2_" gradientUnits="userSpaceOnUse" x1="1085.5801" y1="2303.5215" x2="1085.5801" y2="2222.8276" gradientTransform="matrix(1 0 0 1 -1037.5801 -2215.7803)">
			<stop  offset="0" style="stop-color:#224096"/>
			<stop  offset="0.7685" style="stop-color:#4A6EB4"/>
			<stop  offset="1" style="stop-color:#4A6EB4"/>
		</linearGradient>
		<path fill="url(#SVGID_2_)" d="M88,48.288c0,29.632-10.363,40-40,40c-29.635,0-40-10.367-40-40c0-29.634,10.365-40,40-40
			C77.637,8.288,88,18.653,88,48.288z"/>
	</g>
</g>
<g display="none">
	<g display="inline">
		
			<linearGradient id="SVGID_3_" gradientUnits="userSpaceOnUse" x1="293.25" y1="-327" x2="374.75" y2="-327" gradientTransform="matrix(1 0 0 -1 -286 -279)">
			<stop  offset="0" style="stop-color:#0045A3"/>
			<stop  offset="1" style="stop-color:#226DCB"/>
		</linearGradient>
		<path opacity="0.3" fill="url(#SVGID_3_)" enable-background="new    " d="M48,7.25C17.809,7.25,7.25,17.81,7.25,48
			c0,30.188,10.559,40.75,40.75,40.75c30.191,0,40.75-10.563,40.75-40.75C88.75,17.81,78.191,7.25,48,7.25z M48,87.986
			C18.376,87.986,8.015,77.623,8.015,48C8.015,18.375,18.376,8.014,48,8.014c29.626,0,39.986,10.361,39.986,39.986
			C87.986,77.623,77.626,87.986,48,87.986z"/>
		
			<linearGradient id="SVGID_4_" gradientUnits="userSpaceOnUse" x1="1085.5801" y1="2303.2344" x2="1085.5801" y2="2222.5396" gradientTransform="matrix(1 0 0 1 -1037.5801 -2215.7803)">
			<stop  offset="0" style="stop-color:#0045A3"/>
			<stop  offset="1" style="stop-color:#226DCB"/>
		</linearGradient>
		<path fill="url(#SVGID_4_)" d="M88,48c0,29.633-10.363,40-40,40C18.365,88,8,77.633,8,48C8,18.365,18.365,8,48,8
			C77.637,8,88,18.365,88,48z"/>
	</g>
</g>
<g display="none">
	<g display="inline">
		
			<linearGradient id="SVGID_5_" gradientUnits="userSpaceOnUse" x1="293.1719" y1="-326.9785" x2="374.6719" y2="-326.9785" gradientTransform="matrix(1 0 0 -1 -286 -279)">
			<stop  offset="0" style="stop-color:#007594"/>
			<stop  offset="0.1925" style="stop-color:#1C8CA6"/>
			<stop  offset="0.4568" style="stop-color:#47B0C3"/>
			<stop  offset="0.8003" style="stop-color:#61C7D4"/>
			<stop  offset="0.9428" style="stop-color:#6BCFDB"/>
			<stop  offset="1" style="stop-color:#6BCFDB"/>
		</linearGradient>
		<path opacity="0.3" fill="url(#SVGID_5_)" enable-background="new    " d="M47.922,7.228c-30.191,0-40.75,10.561-40.75,40.75
			c0,30.188,10.559,40.75,40.75,40.75c30.191,0,40.75-10.563,40.75-40.75C88.672,17.788,78.113,7.228,47.922,7.228z M47.922,87.964
			c-29.624,0-39.984-10.362-39.984-39.986c0-29.625,10.36-39.986,39.984-39.986c29.626,0,39.986,10.361,39.986,39.986
			C87.908,77.602,77.549,87.964,47.922,87.964z"/>
		
			<linearGradient id="SVGID_6_" gradientUnits="userSpaceOnUse" x1="1085.502" y1="2303.2129" x2="1085.502" y2="2222.5181" gradientTransform="matrix(1 0 0 1 -1037.5801 -2215.7803)">
			<stop  offset="0" style="stop-color:#007594"/>
			<stop  offset="0.1925" style="stop-color:#1C8CA6"/>
			<stop  offset="0.4568" style="stop-color:#47B0C3"/>
			<stop  offset="0.8003" style="stop-color:#61C7D4"/>
			<stop  offset="0.9428" style="stop-color:#6BCFDB"/>
			<stop  offset="1" style="stop-color:#6BCFDB"/>
		</linearGradient>
		<path fill="url(#SVGID_6_)" d="M87.922,47.978c0,29.633-10.363,40-40,40c-29.635,0-40-10.367-40-40c0-29.635,10.365-40,40-40
			C77.559,7.978,87.922,18.343,87.922,47.978z"/>
	</g>
</g>
<rect x="14.5" y="19.5" fill="none" width="67" height="57"/>
<path opacity="0.3" enable-background="new    " d="M59,54.553c-1.951,0-3.716,0.793-4.992,2.071l-12.465-6.79
	c0.105-0.486,0.166-0.988,0.166-1.506c0-0.505-0.057-0.996-0.157-1.471L54,40.163c1.277,1.283,3.046,2.078,5,2.078
	c3.896,0,7.055-3.158,7.055-7.055S62.896,28.132,59,28.132s-7.055,3.158-7.055,7.055c0,0.5,0.055,0.987,0.152,1.457l-12.457,6.697
	c-1.275-1.277-3.04-2.067-4.989-2.067c-3.896,0-7.055,3.158-7.055,7.055c0,3.897,3.159,7.055,7.055,7.055
	c1.937,0,3.688-0.78,4.964-2.043L52.1,60.143c-0.101,0.475-0.154,0.963-0.154,1.467c0,3.896,3.158,7.056,7.056,7.056
	s7.056-3.158,7.056-7.056C66.055,57.712,62.896,54.553,59,54.553z"/>
<path opacity="0.15" fill="none" stroke="#000000" stroke-width="2" enable-background="new    " d="M59,53.553
	c-1.951,0-3.716,0.793-4.992,2.071l-12.465-6.79c0.105-0.486,0.166-0.988,0.166-1.506c0-0.505-0.057-0.996-0.157-1.471L54,39.163
	c1.277,1.283,3.046,2.078,5,2.078c3.896,0,7.055-3.158,7.055-7.055S62.896,27.132,59,27.132s-7.055,3.158-7.055,7.055
	c0,0.5,0.055,0.987,0.152,1.457l-12.457,6.697c-1.275-1.277-3.04-2.067-4.989-2.067c-3.896,0-7.055,3.158-7.055,7.055
	c0,3.897,3.159,7.055,7.055,7.055c1.937,0,3.688-0.78,4.964-2.043L52.1,59.143c-0.101,0.475-0.154,0.963-0.154,1.467
	c0,3.896,3.158,7.056,7.056,7.056s7.056-3.158,7.056-7.056C66.055,56.712,62.896,53.553,59,53.553z"/>
<linearGradient id="SVGID_7_" gradientUnits="userSpaceOnUse" x1="631.3262" y1="773" x2="631.3262" y2="731.2389" gradientTransform="matrix(1 0 0 1 -584.5 -708.5)">
	<stop  offset="0" style="stop-color:#D0CBC5"/>
	<stop  offset="0.5031" style="stop-color:#FAFCEF"/>
	<stop  offset="0.9693" style="stop-color:#FFFFFF"/>
</linearGradient>
<path fill="url(#SVGID_7_)" d="M59,53.553c-1.951,0-3.716,0.793-4.992,2.071l-12.465-6.79c0.105-0.486,0.166-0.988,0.166-1.506
	c0-0.505-0.057-0.996-0.157-1.471L54,39.163c1.277,1.283,3.046,2.078,5,2.078c3.896,0,7.055-3.158,7.055-7.055
	S62.896,27.132,59,27.132s-7.055,3.158-7.055,7.055c0,0.5,0.055,0.987,0.152,1.457l-12.457,6.697
	c-1.275-1.277-3.04-2.067-4.989-2.067c-3.896,0-7.055,3.158-7.055,7.055c0,3.897,3.159,7.055,7.055,7.055
	c1.937,0,3.688-0.78,4.964-2.043L52.1,59.143c-0.101,0.475-0.154,0.963-0.154,1.467c0,3.896,3.158,7.056,7.056,7.056
	s7.056-3.158,7.056-7.056C66.055,56.712,62.896,53.553,59,53.553z"/>
<path fill="#FFFFFF" d="M51.975,35.71l-12.332,6.63c-1.275-1.277-3.04-2.067-4.989-2.067c-3.896,0-7.055,3.158-7.055,7.055
	c0,0.169,0.014,0.334,0.025,0.5c0.257-3.662,3.303-6.555,7.029-6.555c1.949,0,3.714,0.79,4.989,2.067l12.456-6.697
	C52.034,36.34,51.997,36.027,51.975,35.71z M59,28.132c3.729,0,6.771,2.893,7.029,6.555c0.012-0.166,0.025-0.331,0.025-0.5
	c0-3.896-3.158-7.055-7.057-7.055s-7.057,3.158-7.057,7.055c0,0.164,0.017,0.325,0.027,0.486C52.234,31.017,55.277,28.132,59,28.132
	z M51.945,60.607c0,0.174,0.014,0.344,0.025,0.515c0.022-0.333,0.063-0.662,0.129-0.981l-0.127-0.067
	C51.96,60.249,51.945,60.427,51.945,60.607z M59,53.553c-1.951,0-3.716,0.793-4.992,2.071l-12.332-6.718
	c-0.027,0.314-0.068,0.625-0.133,0.928l12.465,6.79c1.276-1.278,3.041-2.071,4.992-2.071c3.729,0,6.771,2.893,7.029,6.555
	c0.012-0.166,0.025-0.33,0.025-0.5C66.055,56.711,62.896,53.553,59,53.553z M41.681,47.819c0.012-0.163,0.028-0.325,0.028-0.491
	c0-0.183-0.016-0.361-0.029-0.54l-0.128,0.069C41.618,47.17,41.657,47.493,41.681,47.819z"/>
</svg>
